<mxfile host="Electron" modified="2024-02-19T11:23:51.234Z" agent="Mozilla/5.0 (X11; Linux x86_64) AppleWebKit/537.36 (KHTML, like Gecko) draw.io/23.1.5 Chrome/120.0.6099.109 Electron/28.1.0 Safari/537.36" etag="LNIzEL7fbCfWU6o_j4r4" version="23.1.5" type="device">
  <diagram name="Page-1" id="JTKxfpPEzqUzuXzLvSPj">
    <mxGraphModel dx="839" dy="384" grid="0" gridSize="10" guides="1" tooltips="1" connect="1" arrows="1" fold="1" page="1" pageScale="1" pageWidth="850" pageHeight="1100" math="0" shadow="0">
      <root>
        <mxCell id="0" />
        <mxCell id="1" parent="0" />
        <mxCell id="EVICSTCxTQ7WN30AzL8C-1" value="" style="rounded=1;whiteSpace=wrap;html=1;" parent="1" vertex="1">
          <mxGeometry x="255" y="213" width="250" height="20" as="geometry" />
        </mxCell>
        <mxCell id="4hVNnn_8sVpHoIyQFyNl-3" value="Quarkus Workflow Project" style="rounded=1;whiteSpace=wrap;html=1;" parent="1" vertex="1">
          <mxGeometry x="250" y="73" width="250" height="60" as="geometry" />
        </mxCell>
        <mxCell id="4hVNnn_8sVpHoIyQFyNl-5" value="SonataFlow Persistence Addon" style="rounded=1;whiteSpace=wrap;html=1;" parent="1" vertex="1">
          <mxGeometry x="250" y="158" width="250" height="20" as="geometry" />
        </mxCell>
        <mxCell id="4hVNnn_8sVpHoIyQFyNl-7" value="&lt;pre style=&quot;background-color: rgb(255, 255, 255); color: rgb(8, 8, 8); font-family: &amp;quot;JetBrains Mono&amp;quot;, monospace;&quot;&gt;&lt;br&gt;&lt;/pre&gt;" style="text;html=1;align=center;verticalAlign=middle;resizable=0;points=[];autosize=1;strokeColor=none;fillColor=none;fontSize=12;fontFamily=Helvetica;" parent="1" vertex="1">
          <mxGeometry x="779" y="560" width="20" height="50" as="geometry" />
        </mxCell>
        <mxCell id="4hVNnn_8sVpHoIyQFyNl-9" value="" style="shape=cross;whiteSpace=wrap;html=1;fillColor=#33001A;strokeColor=#000000;gradientColor=default;" parent="1" vertex="1">
          <mxGeometry x="363" y="138" width="15" height="15" as="geometry" />
        </mxCell>
        <mxCell id="4hVNnn_8sVpHoIyQFyNl-12" value="" style="shape=cross;whiteSpace=wrap;html=1;fillColor=#33001A;strokeColor=#000000;gradientColor=default;" parent="1" vertex="1">
          <mxGeometry x="363" y="185" width="15" height="15" as="geometry" />
        </mxCell>
        <mxCell id="4hVNnn_8sVpHoIyQFyNl-11" value="Other Quarkus Persistence Extensions&amp;nbsp;" style="rounded=1;whiteSpace=wrap;html=1;" parent="1" vertex="1">
          <mxGeometry x="250" y="207" width="250" height="20" as="geometry" />
        </mxCell>
        <mxCell id="ckIIAczoE2gYTY13vM26-1" value="" style="rounded=0;whiteSpace=wrap;html=1;" parent="1" vertex="1">
          <mxGeometry x="250" y="263" width="250" height="37" as="geometry" />
        </mxCell>
        <mxCell id="ckIIAczoE2gYTY13vM26-2" value="" style="shape=cross;whiteSpace=wrap;html=1;fillColor=#33001A;strokeColor=#000000;gradientColor=default;" parent="1" vertex="1">
          <mxGeometry x="362" y="240" width="15" height="15" as="geometry" />
        </mxCell>
        <mxCell id="ckIIAczoE2gYTY13vM26-4" value="application.properties" style="text;html=1;align=center;verticalAlign=middle;whiteSpace=wrap;rounded=0;" parent="1" vertex="1">
          <mxGeometry x="345" y="266.5" width="60" height="30" as="geometry" />
        </mxCell>
      </root>
    </mxGraphModel>
  </diagram>
</mxfile>
